<?xml version="1.0" encoding="utf-8"?>
<!-- Generator: Adobe Illustrator 15.1.0, SVG Export Plug-In . SVG Version: 6.00 Build 0)  -->
<!DOCTYPE svg PUBLIC "-//W3C//DTD SVG 1.1//EN" "http://www.w3.org/Graphics/SVG/1.1/DTD/svg11.dtd">
<svg version="1.1" id="Capa_1" xmlns="http://www.w3.org/2000/svg" xmlns:xlink="http://www.w3.org/1999/xlink" x="0px" y="0px"
	 width="253.016px" height="354.866px" viewBox="0 0 253.016 354.866" enable-background="new 0 0 253.016 354.866"
	 xml:space="preserve">
<g>
	<g>
		<path fill="#1D1D1B" d="M165.156,55.755c-13.406,0-24.27,10.869-24.27,24.273c0,13.402,10.863,24.268,24.27,24.268
			c13.408,0,24.271-10.865,24.271-24.268C189.428,66.624,178.564,55.755,165.156,55.755z"/>
		<path fill="#1D1D1B" d="M44.094,14.269l-0.09,0.092H22.178v21.825l-0.094,0.091l0.094,0.09V225.92h211.559V14.36H44.186
			L44.094,14.269z M202.609,45.489v127.292L75.314,45.489H202.609z M53.307,67.497l65.758,65.758H53.307V67.497z M53.307,164.384
			h96.887l30.406,30.408H53.307V164.384z"/>
	</g>
	<g>
		<path d="M24.041,323.258c2.189,1.777,4.576,3.23,7.156,4.357c2.578,1.127,5.141,1.689,7.691,1.689c3.023,0,5.23-0.502,6.623-1.514
			c1.395-1.006,2.09-2.369,2.09-4.09c0-0.889-0.209-1.658-0.621-2.311c-0.416-0.65-1.008-1.23-1.779-1.734
			c-0.771-0.502-1.703-0.977-2.799-1.424c-1.1-0.443-2.359-0.934-3.781-1.465l-7.469-3.203c-1.602-0.592-3.156-1.361-4.668-2.311
			c-1.512-0.947-2.832-2.059-3.957-3.336c-1.127-1.273-2.031-2.758-2.713-4.445c-0.682-1.689-1.02-3.602-1.02-5.737
			c0-2.368,0.516-4.608,1.555-6.712c1.035-2.104,2.488-3.941,4.355-5.514c1.867-1.57,4.105-2.802,6.715-3.69
			c2.607-0.89,5.48-1.334,8.623-1.334c3.559,0,6.996,0.653,10.316,1.956c3.32,1.304,6.314,3.202,8.98,5.692l-6.67,8.268
			c-2.014-1.48-4-2.621-5.957-3.422c-1.955-0.801-4.178-1.201-6.67-1.201c-2.549,0-4.52,0.462-5.91,1.379
			c-1.396,0.92-2.09,2.21-2.09,3.867c0,1.778,0.887,3.113,2.666,4.003c1.779,0.891,4.061,1.838,6.848,2.846l7.023,3.021
			c3.854,1.424,6.893,3.381,9.115,5.871c2.221,2.488,3.336,5.777,3.336,9.869c0,2.432-0.506,4.729-1.512,6.891
			c-1.01,2.166-2.461,4.062-4.357,5.691c-1.898,1.631-4.24,2.936-7.025,3.912c-2.787,0.98-5.99,1.469-9.604,1.469
			c-3.912,0-7.779-0.697-11.604-2.09c-3.824-1.395-7.307-3.482-10.449-6.27L24.041,323.258z"/>
		<path d="M65.654,317.479c0-3.676,0.623-6.949,1.867-9.826c1.244-2.875,2.918-5.291,5.023-7.247
			c2.104-1.957,4.504-3.453,7.203-4.49c2.695-1.038,5.498-1.559,8.402-1.559c2.902,0,5.705,0.521,8.402,1.559
			c2.697,1.037,5.098,2.533,7.203,4.49c2.104,1.956,3.779,4.372,5.025,7.247c1.244,2.877,1.867,6.15,1.867,9.826
			s-0.623,6.951-1.867,9.824c-1.246,2.877-2.922,5.293-5.025,7.248c-2.105,1.957-4.506,3.455-7.203,4.49
			c-2.697,1.037-5.5,1.557-8.402,1.557c-2.904,0-5.707-0.52-8.402-1.557c-2.699-1.035-5.1-2.533-7.203-4.49
			c-2.105-1.955-3.779-4.371-5.023-7.248C66.277,324.43,65.654,321.154,65.654,317.479z M79.08,317.479
			c0,3.854,0.756,6.904,2.268,9.158s3.779,3.379,6.803,3.379s5.291-1.125,6.801-3.379c1.514-2.254,2.268-5.305,2.268-9.158
			s-0.754-6.906-2.268-9.16c-1.51-2.252-3.777-3.379-6.801-3.379s-5.291,1.127-6.803,3.379
			C79.836,310.572,79.08,313.625,79.08,317.479z"/>
		<path d="M115.094,317.479c0-3.676,0.623-6.949,1.867-9.826c1.244-2.875,2.918-5.291,5.023-7.247
			c2.104-1.957,4.504-3.453,7.201-4.49c2.697-1.038,5.5-1.559,8.404-1.559s5.705,0.521,8.404,1.559
			c2.697,1.037,5.096,2.533,7.201,4.49c2.104,1.956,3.779,4.372,5.025,7.247c1.244,2.877,1.867,6.15,1.867,9.826
			s-0.623,6.951-1.867,9.824c-1.246,2.877-2.922,5.293-5.025,7.248c-2.105,1.957-4.504,3.455-7.201,4.49
			c-2.699,1.037-5.5,1.557-8.404,1.557s-5.707-0.52-8.404-1.557c-2.697-1.035-5.098-2.533-7.201-4.49
			c-2.105-1.955-3.779-4.371-5.023-7.248C115.717,324.43,115.094,321.154,115.094,317.479z M128.52,317.479
			c0,3.854,0.756,6.904,2.268,9.158s3.779,3.379,6.803,3.379s5.291-1.125,6.801-3.379c1.514-2.254,2.268-5.305,2.268-9.158
			s-0.754-6.906-2.268-9.16c-1.51-2.252-3.777-3.379-6.801-3.379s-5.291,1.127-6.803,3.379
			C129.275,310.572,128.52,313.625,128.52,317.479z"/>
		<path d="M166.756,295.425h10.67l0.977,5.868h0.357c1.896-1.896,4.074-3.526,6.535-4.892c2.459-1.362,5.35-2.045,8.67-2.045
			c4.98,0,8.625,1.603,10.938,4.803c2.311,3.202,3.469,7.589,3.469,13.161v27.209h-13.072v-25.52c0-2.963-0.475-5.127-1.422-6.492
			c-0.949-1.363-2.639-2.045-5.07-2.045c-1.779,0-3.334,0.387-4.668,1.156c-1.334,0.771-2.771,1.926-4.312,3.467v29.434h-13.07
			V295.425z"/>
		<path d="M218.711,330.193c0-1.482,0.25-2.861,0.754-4.135c0.506-1.275,1.201-2.387,2.092-3.334
			c0.887-0.949,1.969-1.689,3.244-2.225c1.273-0.531,2.682-0.801,4.223-0.801s2.951,0.27,4.225,0.801
			c1.275,0.535,2.357,1.275,3.248,2.225c0.889,0.947,1.584,2.059,2.088,3.334c0.504,1.273,0.756,2.652,0.756,4.135
			c0,2.965-0.949,5.439-2.844,7.426c-1.898,1.984-4.389,2.979-7.473,2.979c-3.082,0-5.572-0.994-7.467-2.979
			C219.658,335.633,218.711,333.158,218.711,330.193z"/>
	</g>
</g>
</svg>
